<svg width="41" height="40" viewBox="0 0 41 40" fill="none" xmlns="http://www.w3.org/2000/svg">
<path d="M20.12 40C31.232 40 40.24 31.0457 40.24 20C40.24 8.9543 31.232 0 20.12 0C9.00803 0 0 8.9543 0 20C0 31.0457 9.00803 40 20.12 40Z" fill="#211D1E"/>
<path d="M28.54 7.361C28.54 7.361 28.54 21.944 28.54 25.621C28.54 29.3 25.665 34.371 19.506 34.371C14.221 34.371 10.303 29.431 10.303 25.228H19.554V7.354L28.54 7.361Z" fill="#FFF9EE"/>
<path d="M19.555 25.228H10.304C10.304 29.43 14.222 34.37 19.507 34.37L19.555 25.228Z" fill="#6EC1E6"/>
</svg>
